# xmcd CD database file
#
# Track frame offsets:
#	150
#	19978
#	48209
#	62110
#	73605
#	97921
#	109419
#	127157
#	151002
#	169715
#	193647
#	217150
#
# Disc length: 3115 seconds
#
# Revision: 0
# Processed by: cddbd v1.5.2PL0 Copyright (c) Steve Scherf et al.
# Submitted via: CDex 1.51
#
DISCID=aa0c290c
DTITLE=Miles Davis - Ultimate Miles
DYEAR=2008
DGENRE=Jazz
TTITLE0=S'Il Vous Plait
TTITLE1=Out Of The Blue
TTITLE2=Klact-Oveeseds-Tene
TTITLE3=The Hymn
TTITLE4=It's Only A Paper Moon
TTITLE5=Budo (First Version)
TTITLE6=52nd Street Theme
TTITLE7=No Greater Love
TTITLE8=Out Of Nowhere
TTITLE9=Stablemates
TTITLE10=S'Posin
TTITLE11=Why Do I Love You
EXTD=YEAR: 2008
EXTT0=
EXTT1=
EXTT2=
EXTT3=
EXTT4=
EXTT5=
EXTT6=
EXTT7=
EXTT8=
EXTT9=
EXTT10=
EXTT11=
PLAYORDER=
